<svg xmlns="http://www.w3.org/2000/svg" height="20" viewBox="0 96 960 960" width="20"><path d="m371.587 464 57.913 57.913H318.696v108.174h67.444v-19h59.73V644.5q0 17.152-13.174 30.326T402.37 688h-101q-17.152 0-29.826-13.174T258.87 644.5v-119q0-25.152 18.174-43.326T320.37 464h51.217Zm-77.348-184.131H741.13q34.483 0 58.742 24.259t24.259 58.742v447.891l-83.001-84V362.87H377.239l-83-83.001ZM701.13 611.087v35.061q0 6.807-3.902 14.43-3.902 7.623-9.706 12.813L640.63 626.5h9.283v-15.413h51.217Zm-59.969-70.174v-19h-66.248v38.63l-56-56V495.5q1.435-13.573 11.618-22.536Q540.715 464 555.217 464h105.087q16.435 0 28.631 11.812 12.195 11.813 12.195 29.275v35.826h-59.969Zm-92.096-5.978Zm-133.782 78.782ZM195.891 288.304l74.566 74.566H218.87v426.26h371.065L88.805 288l53.391-53.391L825.218 917.63l-53.392 53.392-98.891-98.891H219.331q-35.244 0-59.353-24.259t-24.109-58.742V362.87q0-40.87 27.816-56.881 27.815-16.011 32.206-17.685Z"/></svg>