<svg xmlns="http://www.w3.org/2000/svg" height="20" viewBox="0 96 960 960" width="20"><path d="M528 1059.59q-109.696 0-196.728-56.67-87.033-56.659-126.707-157.724L99.805 579.674q-2.24-6.239-3.62-13.098-1.38-6.859-1.38-14.098 0-31.435 22.075-53.63 22.076-22.196 53.511-22.196 6.239 0 13.098.881 6.859.88 13.337 2.88l49 18q13 4.761 21.5 10.12 8.5 5.358 13.261 12.315V273.565q0-44.624 29.413-74.018 29.413-29.395 74.125-29.395 4.918 0 11.223 1 6.304 1 10.587 2.761 6.239-34.196 33.837-56.054Q467.37 96 504.18 96q30.054 0 53.87 16.543 23.816 16.544 35.037 43.87 5-2.478 12.978-3.598 7.978-1.119 17.935-1.119 41.037 0 70.312 27.72t29.275 68.28v36.608q5.043-1.761 9.087-2.141 4.043-.381 11.326-.381 43.19 0 73.301 30.112 30.112 30.112 30.112 73.302V744q0 132.87-93.272 224.228Q660.87 1059.59 528 1059.59Zm0-79.177q99.761 0 169.88-68.326Q768 843.761 768 744V385.196q0-9.6-7.2-16.8-7.2-7.2-16.8-7.2-9.6 0-16.8 7.2-7.2 7.2-7.2 16.8v198.217h-72V254.87q0-9.6-7.2-16.8-7.2-7.2-16.8-7.2-9.6 0-16.8 7.2-7.2 7.2-7.2 16.8v328.543h-72v-384q0-9.6-7.2-16.8-7.2-7.2-16.8-7.2-9.6 0-16.8 7.2-7.2 7.2-7.2 16.8v384h-72V273.565q0-9.6-7.2-16.8-7.2-7.2-16.8-7.2-9.6 0-16.8 7.2-7.2 7.2-7.2 16.8v426.022h-71.283l-45.5-103.196q-8.239-19.282-27.978-27.782t-38.826-12.783l102.848 260.978q30.212 76.135 96.465 119.872Q441.978 980.413 528 980.413Z"/></svg>