<svg xmlns="http://www.w3.org/2000/svg" height="20" viewBox="0 96 960 960" width="20"><path d="m872.131 767-144-144v93.587l-83.001-83V362.87H373.413l-83-83.001H645.13q34.483 0 58.742 24.259t24.259 58.742V527l144-144v384Zm-65.544 236.78L51.217 248.935l53.631-53.631 755.848 754.848-54.109 53.628ZM509.152 497.848Zm-103.63 103.63ZM190.413 281.869l81 80.001H218.87v427.26h426.26v-54.543l82.522 82.522q-9.913 22.63-29.543 38.826-19.631 16.196-52.698 16.196H218.87q-33.783 0-58.392-24.301t-24.609-58.842V361.87q0-28.684 15.696-49.647 15.696-20.962 39.326-29.875l-.478-.479Z"/></svg>